<svg width="20" height="22" viewBox="0 0 20 22" fill="none" xmlns="http://www.w3.org/2000/svg">
<g filter="url(#filter0_d_1_180)">
<path d="M7.56292 6.33053C7.69486 6.30343 7.81092 6.2236 7.88557 6.10859C7.96022 5.99358 7.98734 5.85281 7.96097 5.71725C7.9346 5.58169 7.8569 5.46245 7.74496 5.38575C7.63302 5.30906 7.49601 5.28119 7.36407 5.30828C6.7533 5.43337 6.29202 5.87257 6.0465 6.46118C5.803 7.04353 5.76715 7.77182 5.95721 8.55153C5.97206 8.6193 5.99993 8.68333 6.0392 8.73987C6.07848 8.79641 6.12835 8.84432 6.1859 8.88077C6.24345 8.91722 6.3075 8.94149 6.37431 8.95214C6.44111 8.9628 6.50932 8.95963 6.57491 8.94281C6.64051 8.926 6.70217 8.89588 6.75628 8.85423C6.81038 8.81259 6.85584 8.76025 6.88998 8.70029C6.92411 8.64034 6.94624 8.57398 6.95506 8.50511C6.96388 8.43624 6.95922 8.36626 6.94134 8.29927C6.79253 7.68912 6.84123 7.20128 6.97854 6.87188C7.11381 6.54804 7.3289 6.37848 7.56292 6.32983V6.33053ZM5.58386 0.89893C5.55499 1.39231 5.62531 1.88652 5.79044 2.35076C5.95556 2.81501 6.21195 3.23935 6.54363 3.59736C5.89929 3.78717 5.32241 4.16503 4.88299 4.68509C4.44357 5.20516 4.1605 5.84507 4.06811 6.52719C3.84548 8.1639 4.17232 9.8297 4.99474 11.25L5.23147 11.66C5.24044 11.6751 5.25015 11.6897 5.26055 11.7038L6.21829 13.0283C6.42115 13.309 6.68112 13.5409 6.98011 13.7079C7.2791 13.8749 7.60991 13.9729 7.94953 13.9951C8.28914 14.0174 8.62938 13.9633 8.94657 13.8366C9.26376 13.71 9.55028 13.5138 9.78616 13.2618C9.81374 13.2323 9.84683 13.2089 9.88344 13.1929C9.92005 13.1769 9.95943 13.1686 9.99922 13.1686C10.039 13.1686 10.0784 13.1769 10.115 13.1929C10.1516 13.2089 10.1847 13.2323 10.2123 13.2618C10.4482 13.5138 10.7347 13.71 11.0519 13.8366C11.369 13.9633 11.7093 14.0174 12.0489 13.9951C12.3885 13.9729 12.7193 13.8749 13.0183 13.7079C13.3173 13.5409 13.5773 13.309 13.7801 13.0283L14.7379 11.7031C14.7481 11.689 14.7576 11.6744 14.7663 11.6593L15.0037 11.2493C15.8267 9.82946 16.1542 8.16391 15.9324 6.52719C15.8669 6.04492 15.7057 5.58159 15.4589 5.16589C15.2121 4.75019 14.8849 4.39096 14.4975 4.11045C14.1101 3.82994 13.6708 3.63411 13.2067 3.5351C12.7427 3.43608 12.2638 3.43599 11.7997 3.53481L10.5139 3.80862H10.5119C10.5322 3.26657 10.6147 2.68282 10.7764 2.18386C10.9725 1.58066 11.2444 1.2179 11.5474 1.08865C11.6717 1.03538 11.7702 0.933597 11.8214 0.805683C11.8726 0.677768 11.8722 0.534203 11.8203 0.40657C11.7685 0.278937 11.6694 0.177691 11.5449 0.125105C11.4204 0.0725185 11.2807 0.0728997 11.1565 0.126165C10.4449 0.43124 10.0405 1.15467 9.81389 1.85377L9.78278 1.95245C9.61621 1.62177 9.40108 1.3194 9.14496 1.05599C8.79418 0.695171 8.37279 0.415038 7.90871 0.234135C7.44463 0.0532323 6.94844 -0.0243123 6.453 0.00663618C6.22689 0.0200077 6.01343 0.118177 5.8531 0.282523C5.69277 0.446869 5.59672 0.66596 5.58318 0.898235L5.58386 0.89893ZM6.59368 1.04278C6.93309 1.03272 7.27091 1.09411 7.58637 1.22318C7.90183 1.35225 8.18824 1.54627 8.428 1.79331C8.66844 2.03965 8.85728 2.33392 8.9829 2.65804C9.10853 2.98215 9.16828 3.32925 9.15849 3.67797C9.03581 3.68139 8.91306 3.67558 8.79122 3.66059L8.37389 3.57164C7.97724 3.45006 7.61641 3.22863 7.32416 2.92744C7.08373 2.6811 6.89489 2.38683 6.76926 2.06271C6.64364 1.7386 6.58389 1.3915 6.59368 1.04278ZM7.9931 4.55497L8.12972 4.58416C8.29205 4.63142 8.45709 4.66686 8.62348 4.68979L9.27956 4.82878C9.75474 4.92992 10.245 4.92992 10.7202 4.82878L12.0067 4.55497C12.3348 4.4851 12.6734 4.48518 13.0016 4.5552C13.3297 4.62523 13.6403 4.76371 13.9142 4.96208C14.1881 5.16045 14.4195 5.41448 14.594 5.70844C14.7685 6.0024 14.8824 6.33003 14.9286 6.67105C15.1186 8.07322 14.8378 9.50004 14.1325 10.7163L13.9086 11.1033L12.9665 12.407C12.8515 12.5662 12.7041 12.6976 12.5346 12.7923C12.3651 12.8869 12.1776 12.9425 11.9851 12.955C11.7926 12.9676 11.5997 12.9369 11.4199 12.865C11.2402 12.7932 11.0778 12.682 10.9441 12.5391C10.8219 12.4084 10.6753 12.3045 10.513 12.2334C10.3508 12.1624 10.1763 12.1258 9.99989 12.1258C9.82353 12.1258 9.64899 12.1624 9.48674 12.2334C9.32449 12.3045 9.17787 12.4084 9.05568 12.5391C8.92201 12.682 8.75963 12.7932 8.57985 12.865C8.40007 12.9369 8.2072 12.9676 8.01469 12.955C7.82218 12.9425 7.63465 12.8869 7.46516 12.7923C7.29567 12.6976 7.14831 12.5662 7.03332 12.407L6.09114 11.1033L5.86726 10.7163C5.16226 9.49996 4.88171 8.07314 5.07184 6.67105C5.11811 6.3301 5.23199 6.00254 5.40643 5.70863C5.58088 5.41473 5.81218 5.16074 6.08601 4.96238C6.35985 4.76402 6.67039 4.62552 6.99843 4.55544C7.32646 4.48536 7.665 4.4852 7.9931 4.55497Z" fill="white"/>
</g>
<defs>
<filter id="filter0_d_1_180" x="0" y="0" width="20" height="22" filterUnits="userSpaceOnUse" color-interpolation-filters="sRGB">
<feFlood flood-opacity="0" result="BackgroundImageFix"/>
<feColorMatrix in="SourceAlpha" type="matrix" values="0 0 0 0 0 0 0 0 0 0 0 0 0 0 0 0 0 0 127 0" result="hardAlpha"/>
<feOffset dy="4"/>
<feGaussianBlur stdDeviation="2"/>
<feComposite in2="hardAlpha" operator="out"/>
<feColorMatrix type="matrix" values="0 0 0 0 0 0 0 0 0 0 0 0 0 0 0 0 0 0 0.5 0"/>
<feBlend mode="normal" in2="BackgroundImageFix" result="effect1_dropShadow_1_180"/>
<feBlend mode="normal" in="SourceGraphic" in2="effect1_dropShadow_1_180" result="shape"/>
</filter>
</defs>
</svg>
