<svg width="14" height="16" viewBox="0 0 14 16" fill="none" xmlns="http://www.w3.org/2000/svg">
<path d="M7.51744 14.7312L8.63077 13.9039C10.0541 12.8452 11.1559 11.3682 11.8009 9.65407C12.4459 7.93992 12.6062 6.06305 12.2621 4.25354C12.2451 4.16437 12.209 4.08055 12.1567 4.00857C12.1043 3.93659 12.037 3.87839 11.9601 3.83846L6.75277 1.13333L1.5461 3.83846C1.46904 3.8783 1.40165 3.93647 1.34916 4.00846C1.29667 4.08044 1.2605 4.1643 1.24343 4.25354C0.899422 6.06312 1.05982 7.94003 1.70496 9.65419C2.3501 11.3683 3.45195 12.8453 4.87543 13.9039L5.98877 14.7312C6.21282 14.8978 6.47966 14.9871 6.7531 14.9871C7.02655 14.9871 7.29338 14.8978 7.51744 14.7312V14.7312Z" stroke="white" stroke-width="1.5" stroke-linecap="round" stroke-linejoin="round"/>
</svg>
