<svg width="19" height="19" viewBox="0 0 19 19" fill="none" xmlns="http://www.w3.org/2000/svg">
<path d="M0 5.99968V10.0005H0.95V15.9992H0V18.999H15.2L18.05 19V18.999H19V15.9992H18.05V10.0005H19V5.99968L9.5 0L0 5.99968ZM3.8 15.9992V10.0005H5.7V15.9992H3.8ZM8.55 15.9992V10.0005H10.45V15.9992H8.55ZM15.2 15.9992H13.3V10.0005H15.2V15.9992ZM11.4 5.99968C11.3999 6.26238 11.3507 6.52249 11.2552 6.76516C11.1596 7.00784 11.0195 7.22832 10.843 7.41403C10.6665 7.59974 10.457 7.74703 10.2264 7.8475C9.99577 7.94797 9.74862 7.99965 9.49905 7.99958C9.24948 7.99951 9.00236 7.94771 8.77181 7.84712C8.54125 7.74653 8.33178 7.59912 8.15535 7.41332C7.97892 7.22752 7.83898 7.00696 7.74353 6.76424C7.64808 6.52152 7.59899 6.26138 7.59905 5.99868C7.59918 5.46815 7.79952 4.95939 8.15602 4.58434C8.51252 4.20929 8.99596 3.99866 9.5 3.99879C10.004 3.99892 10.4874 4.20981 10.8437 4.58505C11.2 4.96029 11.4001 5.46915 11.4 5.99968Z" fill="white"/>
</svg>
