<svg width="16" height="26" viewBox="0 0 16 26" fill="none" xmlns="http://www.w3.org/2000/svg">
<path d="M14.2222 12V14.625C14.2222 16.2495 13.5667 17.8074 12.3998 18.956C11.2329 20.1047 9.65024 20.75 8 20.75C6.34976 20.75 4.76712 20.1047 3.60022 18.956C2.43333 17.8074 1.77778 16.2495 1.77778 14.625V12H0V14.625C0.000933753 16.5614 0.726626 18.4296 2.03842 19.8727C3.35021 21.3157 5.15613 22.2323 7.11111 22.4475V24.25H3.55556V26H12.4444V24.25H8.88889V22.4475C10.8439 22.2323 12.6498 21.3157 13.9616 19.8727C15.2734 18.4296 15.9991 16.5614 16 14.625V12H14.2222Z" fill="#1BCFC4"/>
<path d="M8 19C9.32608 19 10.5979 18.4996 11.5355 17.6088C12.4732 16.718 13 15.5098 13 14.25V4.75C13 3.49022 12.4732 2.28204 11.5355 1.39124C10.5979 0.500445 9.32608 0 8 0C6.67392 0 5.40215 0.500445 4.46447 1.39124C3.52678 2.28204 3 3.49022 3 4.75V14.25C3 15.5098 3.52678 16.718 4.46447 17.6088C5.40215 18.4996 6.67392 19 8 19ZM5 4.75C5 3.99413 5.31607 3.26922 5.87868 2.73475C6.44129 2.20027 7.20435 1.9 8 1.9C8.79565 1.9 9.55871 2.20027 10.1213 2.73475C10.6839 3.26922 11 3.99413 11 4.75V14.25C11 15.0059 10.6839 15.7308 10.1213 16.2653C9.55871 16.7997 8.79565 17.1 8 17.1C7.20435 17.1 6.44129 16.7997 5.87868 16.2653C5.31607 15.7308 5 15.0059 5 14.25V4.75Z" fill="#1BCFC4"/>
</svg>
