<svg width="22" height="16" viewBox="0 0 22 16" fill="none" xmlns="http://www.w3.org/2000/svg">
<path d="M20.9 0H1.1C0.808262 0 0.528473 0.105357 0.322182 0.292893C0.115892 0.48043 0 0.734784 0 1V15C0 15.2652 0.115892 15.5196 0.322182 15.7071C0.528473 15.8946 0.808262 16 1.1 16H20.9C21.1917 16 21.4715 15.8946 21.6778 15.7071C21.8841 15.5196 22 15.2652 22 15V1C22 0.734784 21.8841 0.48043 21.6778 0.292893C21.4715 0.105357 21.1917 0 20.9 0V0ZM19.8 11C18.9248 11 18.0854 11.3161 17.4665 11.8787C16.8477 12.4413 16.5 13.2044 16.5 14H5.5C5.5 13.2044 5.15232 12.4413 4.53345 11.8787C3.91458 11.3161 3.07521 11 2.2 11V5C3.07521 5 3.91458 4.68393 4.53345 4.12132C5.15232 3.55871 5.5 2.79565 5.5 2H16.5C16.5 2.79565 16.8477 3.55871 17.4665 4.12132C18.0854 4.68393 18.9248 5 19.8 5V11Z" fill="white"/>
<path d="M11 3C7.691 3 5 5.2425 5 8C5 10.7575 7.691 13 11 13C14.309 13 17 10.7575 17 8C17 5.2425 14.309 3 11 3ZM11 10.5C9.3455 10.5 8 9.37875 8 8C8 6.62125 9.3455 5.5 11 5.5C12.6545 5.5 14 6.62125 14 8C14 9.37875 12.6545 10.5 11 10.5Z" fill="white"/>
</svg>
