<svg width="15" height="10" viewBox="0 0 15 10" fill="none" xmlns="http://www.w3.org/2000/svg">
<path d="M4.5 5C5.95078 5 7.125 3.8817 7.125 2.5C7.125 1.1183 5.95078 0 4.5 0C3.04922 0 1.875 1.1183 1.875 2.5C1.875 3.8817 3.04922 5 4.5 5ZM6.3 5.71429H6.10547C5.61797 5.9375 5.07656 6.07143 4.5 6.07143C3.92344 6.07143 3.38438 5.9375 2.89453 5.71429H2.7C1.20937 5.71429 0 6.86607 0 8.28572V8.92857C0 9.52009 0.503906 10 1.125 10H7.875C8.49609 10 9 9.52009 9 8.92857V8.28572C9 6.86607 7.79062 5.71429 6.3 5.71429ZM11.25 5C12.4922 5 13.5 4.04018 13.5 2.85714C13.5 1.67411 12.4922 0.714286 11.25 0.714286C10.0078 0.714286 9 1.67411 9 2.85714C9 4.04018 10.0078 5 11.25 5ZM12.375 5.71429H12.2859C11.9602 5.82143 11.6156 5.89286 11.25 5.89286C10.8844 5.89286 10.5398 5.82143 10.2141 5.71429H10.125C9.64688 5.71429 9.20625 5.84598 8.81953 6.05804C9.39141 6.64509 9.75 7.42411 9.75 8.28572V9.14286C9.75 9.19197 9.73828 9.23884 9.73594 9.28571H13.875C14.4961 9.28571 15 8.8058 15 8.21429C15 6.83259 13.8258 5.71429 12.375 5.71429Z" fill="white"/>
</svg>
